<?xml version="1.0" encoding="UTF-8" standalone="no"?>
<!DOCTYPE svg PUBLIC "-//W3C//DTD SVG 1.1//EN"
 "http://www.w3.org/Graphics/SVG/1.1/DTD/svg11.dtd">
<!-- Generated by graphviz version 2.38.0 (20140413.2041)
 -->
<!-- Title: workflow Pages: 1 -->
<svg width="944pt" height="170pt"
 viewBox="0.00 0.00 944.00 170.00" xmlns="http://www.w3.org/2000/svg" xmlns:xlink="http://www.w3.org/1999/xlink">
<g id="graph0" class="graph" transform="scale(1 1) rotate(0) translate(4 166)">
<title>workflow</title>
<polygon fill="white" stroke="none" points="-4,4 -4,-166 940,-166 940,4 -4,4"/>
<!-- place_ad87109bfff0765f4dd8cf4943b04d16a4070fea -->
<g id="node1" class="node"><title>place_ad87109bfff0765f4dd8cf4943b04d16a4070fea</title>
<ellipse fill="lightblue" stroke="#333333" cx="36" cy="-68" rx="36" ry="36"/>
<text text-anchor="middle" x="36" y="-65.8" font-family="Arial" font-size="9.00">empty</text>
</g>
<!-- transition_5ad34b9b2b5beec7a6d4c70d08678378e3f8ab62 -->
<g id="node6" class="node"><title>transition_5ad34b9b2b5beec7a6d4c70d08678378e3f8ab62</title>
<polygon fill="none" stroke="#333333" points="180,-104 108,-104 108,-32 180,-32 180,-104"/>
<text text-anchor="middle" x="144" y="-65.8" font-family="Arial" font-size="9.00">add_desc</text>
</g>
<!-- place_ad87109bfff0765f4dd8cf4943b04d16a4070fea&#45;&gt;transition_5ad34b9b2b5beec7a6d4c70d08678378e3f8ab62 -->
<g id="edge1" class="edge"><title>place_ad87109bfff0765f4dd8cf4943b04d16a4070fea&#45;&gt;transition_5ad34b9b2b5beec7a6d4c70d08678378e3f8ab62</title>
<path fill="none" stroke="#333333" d="M72.0021,-68C81.7591,-68 92.4394,-68 102.485,-68"/>
<polygon fill="#333333" stroke="#333333" points="102.672,-69.7501 107.672,-68 102.672,-66.2501 102.672,-69.7501"/>
</g>
<!-- place_57bebf44a831d35b7f0c00b67323184bb6c19caf -->
<g id="node2" class="node"><title>place_57bebf44a831d35b7f0c00b67323184bb6c19caf</title>
<ellipse fill="none" stroke="#333333" cx="252" cy="-68" rx="36" ry="36"/>
<text text-anchor="middle" x="252" y="-65.8" font-family="Arial" font-size="9.00">desc_box</text>
</g>
<!-- transition_809e7fe960fa0e8d616b65d667e64e3ad77fd246 -->
<g id="node7" class="node"><title>transition_809e7fe960fa0e8d616b65d667e64e3ad77fd246</title>
<polygon fill="none" stroke="#333333" points="396,-104 324,-104 324,-32 396,-32 396,-104"/>
<text text-anchor="middle" x="360" y="-65.8" font-family="Arial" font-size="9.00">add_products</text>
</g>
<!-- place_57bebf44a831d35b7f0c00b67323184bb6c19caf&#45;&gt;transition_809e7fe960fa0e8d616b65d667e64e3ad77fd246 -->
<g id="edge3" class="edge"><title>place_57bebf44a831d35b7f0c00b67323184bb6c19caf&#45;&gt;transition_809e7fe960fa0e8d616b65d667e64e3ad77fd246</title>
<path fill="none" stroke="#333333" d="M288.002,-68C297.759,-68 308.439,-68 318.485,-68"/>
<polygon fill="#333333" stroke="#333333" points="318.672,-69.7501 323.672,-68 318.672,-66.2501 318.672,-69.7501"/>
</g>
<!-- place_02846e839731420ba2dbd739b4e5a0121aca4781 -->
<g id="node3" class="node"><title>place_02846e839731420ba2dbd739b4e5a0121aca4781</title>
<ellipse fill="none" stroke="#333333" cx="468" cy="-68" rx="36" ry="36"/>
<text text-anchor="middle" x="468" y="-65.8" font-family="Arial" font-size="9.00">add_products_box</text>
</g>
<!-- transition_6d361f1d1c1160c1fbbc012cdf8a7580ba82afde -->
<g id="node8" class="node"><title>transition_6d361f1d1c1160c1fbbc012cdf8a7580ba82afde</title>
<polygon fill="none" stroke="#333333" points="612,-136 540,-136 540,-64 612,-64 612,-136"/>
<text text-anchor="middle" x="576" y="-97.8" font-family="Arial" font-size="9.00">validation</text>
</g>
<!-- place_02846e839731420ba2dbd739b4e5a0121aca4781&#45;&gt;transition_6d361f1d1c1160c1fbbc012cdf8a7580ba82afde -->
<g id="edge5" class="edge"><title>place_02846e839731420ba2dbd739b4e5a0121aca4781&#45;&gt;transition_6d361f1d1c1160c1fbbc012cdf8a7580ba82afde</title>
<path fill="none" stroke="#333333" d="M502.831,-78.213C513.024,-81.2902 524.31,-84.6974 534.871,-87.8856"/>
<polygon fill="#333333" stroke="#333333" points="534.373,-89.5632 539.666,-89.333 535.385,-86.2126 534.373,-89.5632"/>
</g>
<!-- place_37c46678bb10ce47b432c9f34f4249775d2b406a -->
<g id="node4" class="node"><title>place_37c46678bb10ce47b432c9f34f4249775d2b406a</title>
<ellipse fill="none" stroke="#333333" cx="684" cy="-100" rx="36" ry="36"/>
<text text-anchor="middle" x="684" y="-97.8" font-family="Arial" font-size="9.00">validation_box</text>
</g>
<!-- transition_7a85f4764bbd6daf1c3545efbbf0f279a6dc0beb -->
<g id="node9" class="node"><title>transition_7a85f4764bbd6daf1c3545efbbf0f279a6dc0beb</title>
<polygon fill="none" stroke="#333333" points="828,-162 756,-162 756,-90 828,-90 828,-162"/>
<text text-anchor="middle" x="792" y="-123.8" font-family="Arial" font-size="9.00">ok</text>
</g>
<!-- place_37c46678bb10ce47b432c9f34f4249775d2b406a&#45;&gt;transition_7a85f4764bbd6daf1c3545efbbf0f279a6dc0beb -->
<g id="edge7" class="edge"><title>place_37c46678bb10ce47b432c9f34f4249775d2b406a&#45;&gt;transition_7a85f4764bbd6daf1c3545efbbf0f279a6dc0beb</title>
<path fill="none" stroke="#333333" d="M719.123,-108.37C729.213,-110.845 740.353,-113.577 750.789,-116.137"/>
<polygon fill="#333333" stroke="#333333" points="750.575,-117.886 755.848,-117.378 751.409,-114.487 750.575,-117.886"/>
</g>
<!-- transition_1f087a5954f6249bb7245576c304a0520d4178c5 -->
<g id="node10" class="node"><title>transition_1f087a5954f6249bb7245576c304a0520d4178c5</title>
<polygon fill="none" stroke="#333333" points="828,-72 756,-72 756,-0 828,-0 828,-72"/>
<text text-anchor="middle" x="792" y="-33.8" font-family="Arial" font-size="9.00">rejected</text>
</g>
<!-- place_37c46678bb10ce47b432c9f34f4249775d2b406a&#45;&gt;transition_1f087a5954f6249bb7245576c304a0520d4178c5 -->
<g id="edge9" class="edge"><title>place_37c46678bb10ce47b432c9f34f4249775d2b406a&#45;&gt;transition_1f087a5954f6249bb7245576c304a0520d4178c5</title>
<path fill="none" stroke="#333333" d="M715.092,-81.8314C726.431,-74.9854 739.501,-67.0935 751.567,-59.8088"/>
<polygon fill="#333333" stroke="#333333" points="752.585,-61.2381 755.961,-57.1556 750.776,-58.2418 752.585,-61.2381"/>
</g>
<!-- place_d6d551296016a4d101c4c61f430ae97cc706afdc -->
<g id="node5" class="node"><title>place_d6d551296016a4d101c4c61f430ae97cc706afdc</title>
<ellipse fill="none" stroke="#333333" cx="900" cy="-126" rx="36" ry="36"/>
<text text-anchor="middle" x="900" y="-123.8" font-family="Arial" font-size="9.00">ok_box</text>
</g>
<!-- transition_5ad34b9b2b5beec7a6d4c70d08678378e3f8ab62&#45;&gt;place_57bebf44a831d35b7f0c00b67323184bb6c19caf -->
<g id="edge2" class="edge"><title>transition_5ad34b9b2b5beec7a6d4c70d08678378e3f8ab62&#45;&gt;place_57bebf44a831d35b7f0c00b67323184bb6c19caf</title>
<path fill="none" stroke="#333333" d="M180.002,-68C189.759,-68 200.439,-68 210.485,-68"/>
<polygon fill="#333333" stroke="#333333" points="210.672,-69.7501 215.672,-68 210.672,-66.2501 210.672,-69.7501"/>
</g>
<!-- transition_809e7fe960fa0e8d616b65d667e64e3ad77fd246&#45;&gt;place_02846e839731420ba2dbd739b4e5a0121aca4781 -->
<g id="edge4" class="edge"><title>transition_809e7fe960fa0e8d616b65d667e64e3ad77fd246&#45;&gt;place_02846e839731420ba2dbd739b4e5a0121aca4781</title>
<path fill="none" stroke="#333333" d="M396.002,-68C405.759,-68 416.439,-68 426.485,-68"/>
<polygon fill="#333333" stroke="#333333" points="426.672,-69.7501 431.672,-68 426.672,-66.2501 426.672,-69.7501"/>
</g>
<!-- transition_6d361f1d1c1160c1fbbc012cdf8a7580ba82afde&#45;&gt;place_37c46678bb10ce47b432c9f34f4249775d2b406a -->
<g id="edge6" class="edge"><title>transition_6d361f1d1c1160c1fbbc012cdf8a7580ba82afde&#45;&gt;place_37c46678bb10ce47b432c9f34f4249775d2b406a</title>
<path fill="none" stroke="#333333" d="M612.002,-100C621.759,-100 632.439,-100 642.485,-100"/>
<polygon fill="#333333" stroke="#333333" points="642.672,-101.75 647.672,-100 642.672,-98.2501 642.672,-101.75"/>
</g>
<!-- transition_7a85f4764bbd6daf1c3545efbbf0f279a6dc0beb&#45;&gt;place_d6d551296016a4d101c4c61f430ae97cc706afdc -->
<g id="edge8" class="edge"><title>transition_7a85f4764bbd6daf1c3545efbbf0f279a6dc0beb&#45;&gt;place_d6d551296016a4d101c4c61f430ae97cc706afdc</title>
<path fill="none" stroke="#333333" d="M828.002,-126C837.759,-126 848.439,-126 858.485,-126"/>
<polygon fill="#333333" stroke="#333333" points="858.672,-127.75 863.672,-126 858.672,-124.25 858.672,-127.75"/>
</g>
<!-- transition_1f087a5954f6249bb7245576c304a0520d4178c5&#45;&gt;place_02846e839731420ba2dbd739b4e5a0121aca4781 -->
<g id="edge10" class="edge"><title>transition_1f087a5954f6249bb7245576c304a0520d4178c5&#45;&gt;place_02846e839731420ba2dbd739b4e5a0121aca4781</title>
<path fill="none" stroke="#333333" d="M755.961,-37.4834C707.336,-39.8079 616.715,-45.1013 540,-55 529.747,-56.323 518.728,-58.1434 508.503,-60.0032"/>
<polygon fill="#333333" stroke="#333333" points="508.152,-58.2882 503.553,-60.9174 508.788,-61.73 508.152,-58.2882"/>
</g>
</g>
</svg>
