<?xml version="1.0" encoding="UTF-8" standalone="no"?>
<!DOCTYPE svg PUBLIC "-//W3C//DTD SVG 1.1//EN"
 "http://www.w3.org/Graphics/SVG/1.1/DTD/svg11.dtd">
<!-- Generated by graphviz version 2.38.0 (20140413.2041)
 -->
<!-- Title: workflow Pages: 1 -->
<svg width="944pt" height="170pt"
 viewBox="0.00 0.00 944.00 170.00" xmlns="http://www.w3.org/2000/svg" xmlns:xlink="http://www.w3.org/1999/xlink">
<g id="graph0" class="graph" transform="scale(1 1) rotate(0) translate(4 166)">
<title>workflow</title>
<polygon fill="white" stroke="none" points="-4,4 -4,-166 940,-166 940,4 -4,4"/>
<!-- place_194562b97b02ac190528a0d731aa8c16dd411022 -->
<g id="node1" class="node"><title>place_194562b97b02ac190528a0d731aa8c16dd411022</title>
<ellipse fill="lightblue" stroke="#333333" cx="36" cy="-68" rx="36" ry="36"/>
<text text-anchor="middle" x="36" y="-65.8" font-family="Arial" font-size="9.00">edition</text>
</g>
<!-- transition_1346217113ee695490b800b956bd6898beba396f -->
<g id="node6" class="node"><title>transition_1346217113ee695490b800b956bd6898beba396f</title>
<polygon fill="none" stroke="#333333" points="180,-136 108,-136 108,-64 180,-64 180,-136"/>
<text text-anchor="middle" x="144" y="-97.8" font-family="Arial" font-size="9.00">datas_added</text>
</g>
<!-- place_194562b97b02ac190528a0d731aa8c16dd411022&#45;&gt;transition_1346217113ee695490b800b956bd6898beba396f -->
<g id="edge1" class="edge"><title>place_194562b97b02ac190528a0d731aa8c16dd411022&#45;&gt;transition_1346217113ee695490b800b956bd6898beba396f</title>
<path fill="none" stroke="#333333" d="M70.8305,-78.213C81.0237,-81.2902 92.3101,-84.6974 102.871,-87.8856"/>
<polygon fill="#333333" stroke="#333333" points="102.373,-89.5632 107.666,-89.333 103.385,-86.2126 102.373,-89.5632"/>
</g>
<!-- place_7901126a924f0d47762716ea7211bd1c4f69d88b -->
<g id="node2" class="node"><title>place_7901126a924f0d47762716ea7211bd1c4f69d88b</title>
<ellipse fill="none" stroke="#333333" cx="252" cy="-100" rx="36" ry="36"/>
<text text-anchor="middle" x="252" y="-97.8" font-family="Arial" font-size="9.00">box_complete</text>
</g>
<!-- transition_046a29a0e9a437662314d8bbab72e1ae491af1b5 -->
<g id="node7" class="node"><title>transition_046a29a0e9a437662314d8bbab72e1ae491af1b5</title>
<polygon fill="none" stroke="#333333" points="396,-162 324,-162 324,-90 396,-90 396,-162"/>
<text text-anchor="middle" x="360" y="-123.8" font-family="Arial" font-size="9.00">products_validation</text>
</g>
<!-- place_7901126a924f0d47762716ea7211bd1c4f69d88b&#45;&gt;transition_046a29a0e9a437662314d8bbab72e1ae491af1b5 -->
<g id="edge3" class="edge"><title>place_7901126a924f0d47762716ea7211bd1c4f69d88b&#45;&gt;transition_046a29a0e9a437662314d8bbab72e1ae491af1b5</title>
<path fill="none" stroke="#333333" d="M287.123,-108.37C297.213,-110.845 308.353,-113.577 318.789,-116.137"/>
<polygon fill="#333333" stroke="#333333" points="318.575,-117.886 323.848,-117.378 319.409,-114.487 318.575,-117.886"/>
</g>
<!-- transition_4e5770fd4365d4ea67975fd1c303c9db47716fcc -->
<g id="node10" class="node"><title>transition_4e5770fd4365d4ea67975fd1c303c9db47716fcc</title>
<polygon fill="none" stroke="#333333" points="396,-72 324,-72 324,-0 396,-0 396,-72"/>
<text text-anchor="middle" x="360" y="-33.8" font-family="Arial" font-size="9.00">products_missing</text>
</g>
<!-- place_7901126a924f0d47762716ea7211bd1c4f69d88b&#45;&gt;transition_4e5770fd4365d4ea67975fd1c303c9db47716fcc -->
<g id="edge9" class="edge"><title>place_7901126a924f0d47762716ea7211bd1c4f69d88b&#45;&gt;transition_4e5770fd4365d4ea67975fd1c303c9db47716fcc</title>
<path fill="none" stroke="#333333" d="M283.092,-81.8314C294.431,-74.9854 307.501,-67.0935 319.567,-59.8088"/>
<polygon fill="#333333" stroke="#333333" points="320.585,-61.2381 323.961,-57.1556 318.776,-58.2418 320.585,-61.2381"/>
</g>
<!-- place_e204d28a2874f6123747650d3e4003d4357d75eb -->
<g id="node3" class="node"><title>place_e204d28a2874f6123747650d3e4003d4357d75eb</title>
<ellipse fill="none" stroke="#333333" cx="468" cy="-126" rx="36" ry="36"/>
<text text-anchor="middle" x="468" y="-123.8" font-family="Arial" font-size="9.00">validate</text>
</g>
<!-- transition_c1e19589c026821f8a42a9debf2a43bd87fd40de -->
<g id="node8" class="node"><title>transition_c1e19589c026821f8a42a9debf2a43bd87fd40de</title>
<polygon fill="none" stroke="#333333" points="612,-162 540,-162 540,-90 612,-90 612,-162"/>
<text text-anchor="middle" x="576" y="-123.8" font-family="Arial" font-size="9.00">box_ok</text>
</g>
<!-- place_e204d28a2874f6123747650d3e4003d4357d75eb&#45;&gt;transition_c1e19589c026821f8a42a9debf2a43bd87fd40de -->
<g id="edge5" class="edge"><title>place_e204d28a2874f6123747650d3e4003d4357d75eb&#45;&gt;transition_c1e19589c026821f8a42a9debf2a43bd87fd40de</title>
<path fill="none" stroke="#333333" d="M504.002,-126C513.759,-126 524.439,-126 534.485,-126"/>
<polygon fill="#333333" stroke="#333333" points="534.672,-127.75 539.672,-126 534.672,-124.25 534.672,-127.75"/>
</g>
<!-- place_1ec558a60b5dda24597816c924776716018caf8b -->
<g id="node4" class="node"><title>place_1ec558a60b5dda24597816c924776716018caf8b</title>
<ellipse fill="none" stroke="#333333" cx="684" cy="-126" rx="36" ry="36"/>
<text text-anchor="middle" x="684" y="-123.8" font-family="Arial" font-size="9.00">go</text>
</g>
<!-- transition_4866441bfc228f048f76711b13248ce5c189d98b -->
<g id="node9" class="node"><title>transition_4866441bfc228f048f76711b13248ce5c189d98b</title>
<polygon fill="none" stroke="#333333" points="828,-162 756,-162 756,-90 828,-90 828,-162"/>
<text text-anchor="middle" x="792" y="-123.8" font-family="Arial" font-size="9.00">box_sent</text>
</g>
<!-- place_1ec558a60b5dda24597816c924776716018caf8b&#45;&gt;transition_4866441bfc228f048f76711b13248ce5c189d98b -->
<g id="edge7" class="edge"><title>place_1ec558a60b5dda24597816c924776716018caf8b&#45;&gt;transition_4866441bfc228f048f76711b13248ce5c189d98b</title>
<path fill="none" stroke="#333333" d="M720.002,-126C729.759,-126 740.439,-126 750.485,-126"/>
<polygon fill="#333333" stroke="#333333" points="750.672,-127.75 755.672,-126 750.672,-124.25 750.672,-127.75"/>
</g>
<!-- place_27e7700fdaa16b99ae9d594813284eb0a992cc16 -->
<g id="node5" class="node"><title>place_27e7700fdaa16b99ae9d594813284eb0a992cc16</title>
<ellipse fill="none" stroke="#333333" cx="900" cy="-126" rx="36" ry="36"/>
<text text-anchor="middle" x="900" y="-123.8" font-family="Arial" font-size="9.00">sent</text>
</g>
<!-- transition_1346217113ee695490b800b956bd6898beba396f&#45;&gt;place_7901126a924f0d47762716ea7211bd1c4f69d88b -->
<g id="edge2" class="edge"><title>transition_1346217113ee695490b800b956bd6898beba396f&#45;&gt;place_7901126a924f0d47762716ea7211bd1c4f69d88b</title>
<path fill="none" stroke="#333333" d="M180.002,-100C189.759,-100 200.439,-100 210.485,-100"/>
<polygon fill="#333333" stroke="#333333" points="210.672,-101.75 215.672,-100 210.672,-98.2501 210.672,-101.75"/>
</g>
<!-- transition_046a29a0e9a437662314d8bbab72e1ae491af1b5&#45;&gt;place_e204d28a2874f6123747650d3e4003d4357d75eb -->
<g id="edge4" class="edge"><title>transition_046a29a0e9a437662314d8bbab72e1ae491af1b5&#45;&gt;place_e204d28a2874f6123747650d3e4003d4357d75eb</title>
<path fill="none" stroke="#333333" d="M396.002,-126C405.759,-126 416.439,-126 426.485,-126"/>
<polygon fill="#333333" stroke="#333333" points="426.672,-127.75 431.672,-126 426.672,-124.25 426.672,-127.75"/>
</g>
<!-- transition_c1e19589c026821f8a42a9debf2a43bd87fd40de&#45;&gt;place_1ec558a60b5dda24597816c924776716018caf8b -->
<g id="edge6" class="edge"><title>transition_c1e19589c026821f8a42a9debf2a43bd87fd40de&#45;&gt;place_1ec558a60b5dda24597816c924776716018caf8b</title>
<path fill="none" stroke="#333333" d="M612.002,-126C621.759,-126 632.439,-126 642.485,-126"/>
<polygon fill="#333333" stroke="#333333" points="642.672,-127.75 647.672,-126 642.672,-124.25 642.672,-127.75"/>
</g>
<!-- transition_4866441bfc228f048f76711b13248ce5c189d98b&#45;&gt;place_27e7700fdaa16b99ae9d594813284eb0a992cc16 -->
<g id="edge8" class="edge"><title>transition_4866441bfc228f048f76711b13248ce5c189d98b&#45;&gt;place_27e7700fdaa16b99ae9d594813284eb0a992cc16</title>
<path fill="none" stroke="#333333" d="M828.002,-126C837.759,-126 848.439,-126 858.485,-126"/>
<polygon fill="#333333" stroke="#333333" points="858.672,-127.75 863.672,-126 858.672,-124.25 858.672,-127.75"/>
</g>
<!-- transition_4e5770fd4365d4ea67975fd1c303c9db47716fcc&#45;&gt;place_194562b97b02ac190528a0d731aa8c16dd411022 -->
<g id="edge10" class="edge"><title>transition_4e5770fd4365d4ea67975fd1c303c9db47716fcc&#45;&gt;place_194562b97b02ac190528a0d731aa8c16dd411022</title>
<path fill="none" stroke="#333333" d="M323.961,-37.4834C275.336,-39.8079 184.715,-45.1013 108,-55 97.7467,-56.323 86.7282,-58.1434 76.5027,-60.0032"/>
<polygon fill="#333333" stroke="#333333" points="76.1523,-58.2882 71.5533,-60.9174 76.7881,-61.73 76.1523,-58.2882"/>
</g>
</g>
</svg>
