<?xml version="1.0" encoding="UTF-8" standalone="no"?>
<!DOCTYPE svg PUBLIC "-//W3C//DTD SVG 1.1//EN"
 "http://www.w3.org/Graphics/SVG/1.1/DTD/svg11.dtd">
<!-- Generated by graphviz version 2.38.0 (20140413.2041)
 -->
<!-- Title: workflow Pages: 1 -->
<svg width="1376pt" height="186pt"
 viewBox="0.00 0.00 1376.00 186.00" xmlns="http://www.w3.org/2000/svg" xmlns:xlink="http://www.w3.org/1999/xlink">
<g id="graph0" class="graph" transform="scale(1 1) rotate(0) translate(4 182)">
<title>workflow</title>
<polygon fill="white" stroke="none" points="-4,4 -4,-182 1372,-182 1372,4 -4,4"/>
<!-- place_ad87109bfff0765f4dd8cf4943b04d16a4070fea -->
<g id="node1" class="node"><title>place_ad87109bfff0765f4dd8cf4943b04d16a4070fea</title>
<ellipse fill="lightblue" stroke="#333333" cx="36" cy="-84" rx="36" ry="36"/>
<text text-anchor="middle" x="36" y="-81.8" font-family="Arial" font-size="9.00">empty</text>
</g>
<!-- transition_34b15f792673261380f27c823eb343a4359b3640 -->
<g id="node8" class="node"><title>transition_34b15f792673261380f27c823eb343a4359b3640</title>
<polygon fill="none" stroke="#333333" points="180,-155 108,-155 108,-83 180,-83 180,-155"/>
<text text-anchor="middle" x="144" y="-116.8" font-family="Arial" font-size="9.00">adding_budget</text>
</g>
<!-- place_ad87109bfff0765f4dd8cf4943b04d16a4070fea&#45;&gt;transition_34b15f792673261380f27c823eb343a4359b3640 -->
<g id="edge1" class="edge"><title>place_ad87109bfff0765f4dd8cf4943b04d16a4070fea&#45;&gt;transition_34b15f792673261380f27c823eb343a4359b3640</title>
<path fill="none" stroke="#333333" d="M70.5391,-95.0742C80.8483,-98.4782 92.2983,-102.259 102.996,-105.791"/>
<polygon fill="#333333" stroke="#333333" points="102.554,-107.488 107.851,-107.394 103.652,-104.165 102.554,-107.488"/>
</g>
<!-- transition_4b3a86a328b005ef12b9955f3ea4428b1f88a055 -->
<g id="node10" class="node"><title>transition_4b3a86a328b005ef12b9955f3ea4428b1f88a055</title>
<polygon fill="none" stroke="#333333" points="288,-72 216,-72 216,-0 288,-0 288,-72"/>
<text text-anchor="middle" x="252" y="-33.8" font-family="Arial" font-size="9.00">desc_ok_from_empty</text>
</g>
<!-- place_ad87109bfff0765f4dd8cf4943b04d16a4070fea&#45;&gt;transition_4b3a86a328b005ef12b9955f3ea4428b1f88a055 -->
<g id="edge5" class="edge"><title>place_ad87109bfff0765f4dd8cf4943b04d16a4070fea&#45;&gt;transition_4b3a86a328b005ef12b9955f3ea4428b1f88a055</title>
<path fill="none" stroke="#333333" d="M71.3828,-76.288C109.375,-67.7663 170.495,-54.0571 210.706,-45.0379"/>
<polygon fill="#333333" stroke="#333333" points="211.496,-46.6543 215.992,-43.8524 210.73,-43.2392 211.496,-46.6543"/>
</g>
<!-- place_615cb9d7293227621c2f867dae3cfa98b4b51628 -->
<g id="node2" class="node"><title>place_615cb9d7293227621c2f867dae3cfa98b4b51628</title>
<ellipse fill="none" stroke="#333333" cx="252" cy="-126" rx="36" ry="36"/>
<text text-anchor="middle" x="252" y="-123.8" font-family="Arial" font-size="9.00">desc_incomplete</text>
</g>
<!-- transition_11eacaa15c0a9d3a04a0503205bef5abbb546cfa -->
<g id="node9" class="node"><title>transition_11eacaa15c0a9d3a04a0503205bef5abbb546cfa</title>
<polygon fill="none" stroke="#333333" points="396,-155 324,-155 324,-83 396,-83 396,-155"/>
<text text-anchor="middle" x="360" y="-116.8" font-family="Arial" font-size="9.00">adding_desc</text>
</g>
<!-- place_615cb9d7293227621c2f867dae3cfa98b4b51628&#45;&gt;transition_11eacaa15c0a9d3a04a0503205bef5abbb546cfa -->
<g id="edge3" class="edge"><title>place_615cb9d7293227621c2f867dae3cfa98b4b51628&#45;&gt;transition_11eacaa15c0a9d3a04a0503205bef5abbb546cfa</title>
<path fill="none" stroke="#333333" d="M288.002,-123.689C297.759,-123.044 308.439,-122.339 318.485,-121.676"/>
<polygon fill="#333333" stroke="#333333" points="318.799,-123.409 323.672,-121.333 318.568,-119.916 318.799,-123.409"/>
</g>
<!-- place_928ad35cb499173079ae0cbe2dd183c8e40b20b0 -->
<g id="node3" class="node"><title>place_928ad35cb499173079ae0cbe2dd183c8e40b20b0</title>
<ellipse fill="none" stroke="#333333" cx="468" cy="-84" rx="36" ry="36"/>
<text text-anchor="middle" x="468" y="-81.8" font-family="Arial" font-size="9.00">desc_complete</text>
</g>
<!-- transition_3a425f67f920d04a521902ff67b91b2ded7894e2 -->
<g id="node11" class="node"><title>transition_3a425f67f920d04a521902ff67b91b2ded7894e2</title>
<polygon fill="none" stroke="#333333" points="612,-120 540,-120 540,-48 612,-48 612,-120"/>
<text text-anchor="middle" x="576" y="-81.8" font-family="Arial" font-size="9.00">adding_products</text>
</g>
<!-- place_928ad35cb499173079ae0cbe2dd183c8e40b20b0&#45;&gt;transition_3a425f67f920d04a521902ff67b91b2ded7894e2 -->
<g id="edge7" class="edge"><title>place_928ad35cb499173079ae0cbe2dd183c8e40b20b0&#45;&gt;transition_3a425f67f920d04a521902ff67b91b2ded7894e2</title>
<path fill="none" stroke="#333333" d="M504.002,-84C513.759,-84 524.439,-84 534.485,-84"/>
<polygon fill="#333333" stroke="#333333" points="534.672,-85.7501 539.672,-84 534.672,-82.2501 534.672,-85.7501"/>
</g>
<!-- place_68759e3e50ab0983d9d04f4f3975e5baa4f71729 -->
<g id="node4" class="node"><title>place_68759e3e50ab0983d9d04f4f3975e5baa4f71729</title>
<ellipse fill="none" stroke="#333333" cx="684" cy="-84" rx="36" ry="36"/>
<text text-anchor="middle" x="684" y="-81.8" font-family="Arial" font-size="9.00">products_incomplete</text>
</g>
<!-- transition_36615bc614e9a6bb6f28d232d4aa34cfd730bd67 -->
<g id="node12" class="node"><title>transition_36615bc614e9a6bb6f28d232d4aa34cfd730bd67</title>
<polygon fill="none" stroke="#333333" points="828,-152 756,-152 756,-80 828,-80 828,-152"/>
<text text-anchor="middle" x="792" y="-113.8" font-family="Arial" font-size="9.00">products_added</text>
</g>
<!-- place_68759e3e50ab0983d9d04f4f3975e5baa4f71729&#45;&gt;transition_36615bc614e9a6bb6f28d232d4aa34cfd730bd67 -->
<g id="edge9" class="edge"><title>place_68759e3e50ab0983d9d04f4f3975e5baa4f71729&#45;&gt;transition_36615bc614e9a6bb6f28d232d4aa34cfd730bd67</title>
<path fill="none" stroke="#333333" d="M718.831,-94.213C729.024,-97.2902 740.31,-100.697 750.871,-103.886"/>
<polygon fill="#333333" stroke="#333333" points="750.373,-105.563 755.666,-105.333 751.385,-102.213 750.373,-105.563"/>
</g>
<!-- place_ebc3c56dda1cdd4eef21ca14eda344cb58b0484e -->
<g id="node5" class="node"><title>place_ebc3c56dda1cdd4eef21ca14eda344cb58b0484e</title>
<ellipse fill="none" stroke="#333333" cx="900" cy="-116" rx="36" ry="36"/>
<text text-anchor="middle" x="900" y="-113.8" font-family="Arial" font-size="9.00">products_complete</text>
</g>
<!-- transition_6d361f1d1c1160c1fbbc012cdf8a7580ba82afde -->
<g id="node13" class="node"><title>transition_6d361f1d1c1160c1fbbc012cdf8a7580ba82afde</title>
<polygon fill="none" stroke="#333333" points="1044,-152 972,-152 972,-80 1044,-80 1044,-152"/>
<text text-anchor="middle" x="1008" y="-113.8" font-family="Arial" font-size="9.00">validation</text>
</g>
<!-- place_ebc3c56dda1cdd4eef21ca14eda344cb58b0484e&#45;&gt;transition_6d361f1d1c1160c1fbbc012cdf8a7580ba82afde -->
<g id="edge11" class="edge"><title>place_ebc3c56dda1cdd4eef21ca14eda344cb58b0484e&#45;&gt;transition_6d361f1d1c1160c1fbbc012cdf8a7580ba82afde</title>
<path fill="none" stroke="#333333" d="M936.002,-116C945.759,-116 956.439,-116 966.485,-116"/>
<polygon fill="#333333" stroke="#333333" points="966.672,-117.75 971.672,-116 966.672,-114.25 966.672,-117.75"/>
</g>
<!-- place_37c46678bb10ce47b432c9f34f4249775d2b406a -->
<g id="node6" class="node"><title>place_37c46678bb10ce47b432c9f34f4249775d2b406a</title>
<ellipse fill="none" stroke="#333333" cx="1116" cy="-116" rx="36" ry="36"/>
<text text-anchor="middle" x="1116" y="-113.8" font-family="Arial" font-size="9.00">validation_box</text>
</g>
<!-- transition_7a85f4764bbd6daf1c3545efbbf0f279a6dc0beb -->
<g id="node14" class="node"><title>transition_7a85f4764bbd6daf1c3545efbbf0f279a6dc0beb</title>
<polygon fill="none" stroke="#333333" points="1260,-178 1188,-178 1188,-106 1260,-106 1260,-178"/>
<text text-anchor="middle" x="1224" y="-139.8" font-family="Arial" font-size="9.00">ok</text>
</g>
<!-- place_37c46678bb10ce47b432c9f34f4249775d2b406a&#45;&gt;transition_7a85f4764bbd6daf1c3545efbbf0f279a6dc0beb -->
<g id="edge13" class="edge"><title>place_37c46678bb10ce47b432c9f34f4249775d2b406a&#45;&gt;transition_7a85f4764bbd6daf1c3545efbbf0f279a6dc0beb</title>
<path fill="none" stroke="#333333" d="M1151.12,-124.37C1161.21,-126.845 1172.35,-129.577 1182.79,-132.137"/>
<polygon fill="#333333" stroke="#333333" points="1182.58,-133.886 1187.85,-133.378 1183.41,-130.487 1182.58,-133.886"/>
</g>
<!-- transition_1f087a5954f6249bb7245576c304a0520d4178c5 -->
<g id="node15" class="node"><title>transition_1f087a5954f6249bb7245576c304a0520d4178c5</title>
<polygon fill="none" stroke="#333333" points="1260,-88 1188,-88 1188,-16 1260,-16 1260,-88"/>
<text text-anchor="middle" x="1224" y="-49.8" font-family="Arial" font-size="9.00">rejected</text>
</g>
<!-- place_37c46678bb10ce47b432c9f34f4249775d2b406a&#45;&gt;transition_1f087a5954f6249bb7245576c304a0520d4178c5 -->
<g id="edge15" class="edge"><title>place_37c46678bb10ce47b432c9f34f4249775d2b406a&#45;&gt;transition_1f087a5954f6249bb7245576c304a0520d4178c5</title>
<path fill="none" stroke="#333333" d="M1147.09,-97.8314C1158.43,-90.9854 1171.5,-83.0935 1183.57,-75.8088"/>
<polygon fill="#333333" stroke="#333333" points="1184.59,-77.2381 1187.96,-73.1556 1182.78,-74.2418 1184.59,-77.2381"/>
</g>
<!-- place_d6d551296016a4d101c4c61f430ae97cc706afdc -->
<g id="node7" class="node"><title>place_d6d551296016a4d101c4c61f430ae97cc706afdc</title>
<ellipse fill="none" stroke="#333333" cx="1332" cy="-142" rx="36" ry="36"/>
<text text-anchor="middle" x="1332" y="-139.8" font-family="Arial" font-size="9.00">ok_box</text>
</g>
<!-- transition_34b15f792673261380f27c823eb343a4359b3640&#45;&gt;place_615cb9d7293227621c2f867dae3cfa98b4b51628 -->
<g id="edge2" class="edge"><title>transition_34b15f792673261380f27c823eb343a4359b3640&#45;&gt;place_615cb9d7293227621c2f867dae3cfa98b4b51628</title>
<path fill="none" stroke="#333333" d="M180.002,-121.311C189.862,-121.963 200.664,-122.676 210.802,-123.345"/>
<polygon fill="#333333" stroke="#333333" points="210.93,-125.108 216.035,-123.691 211.161,-121.615 210.93,-125.108"/>
</g>
<!-- transition_11eacaa15c0a9d3a04a0503205bef5abbb546cfa&#45;&gt;place_928ad35cb499173079ae0cbe2dd183c8e40b20b0 -->
<g id="edge4" class="edge"><title>transition_11eacaa15c0a9d3a04a0503205bef5abbb546cfa&#45;&gt;place_928ad35cb499173079ae0cbe2dd183c8e40b20b0</title>
<path fill="none" stroke="#333333" d="M396.002,-107.443C406.461,-103.989 417.981,-100.186 428.643,-96.665"/>
<polygon fill="#333333" stroke="#333333" points="429.275,-98.2992 433.475,-95.0697 428.178,-94.9757 429.275,-98.2992"/>
</g>
<!-- transition_4b3a86a328b005ef12b9955f3ea4428b1f88a055&#45;&gt;place_928ad35cb499173079ae0cbe2dd183c8e40b20b0 -->
<g id="edge6" class="edge"><title>transition_4b3a86a328b005ef12b9955f3ea4428b1f88a055&#45;&gt;place_928ad35cb499173079ae0cbe2dd183c8e40b20b0</title>
<path fill="none" stroke="#333333" d="M288.338,-43.9262C326.626,-52.5142 387.57,-66.1839 427.435,-75.1256"/>
<polygon fill="#333333" stroke="#333333" points="427.411,-76.9136 432.673,-76.3005 428.177,-73.4985 427.411,-76.9136"/>
</g>
<!-- transition_3a425f67f920d04a521902ff67b91b2ded7894e2&#45;&gt;place_68759e3e50ab0983d9d04f4f3975e5baa4f71729 -->
<g id="edge8" class="edge"><title>transition_3a425f67f920d04a521902ff67b91b2ded7894e2&#45;&gt;place_68759e3e50ab0983d9d04f4f3975e5baa4f71729</title>
<path fill="none" stroke="#333333" d="M612.002,-84C621.759,-84 632.439,-84 642.485,-84"/>
<polygon fill="#333333" stroke="#333333" points="642.672,-85.7501 647.672,-84 642.672,-82.2501 642.672,-85.7501"/>
</g>
<!-- transition_36615bc614e9a6bb6f28d232d4aa34cfd730bd67&#45;&gt;place_ebc3c56dda1cdd4eef21ca14eda344cb58b0484e -->
<g id="edge10" class="edge"><title>transition_36615bc614e9a6bb6f28d232d4aa34cfd730bd67&#45;&gt;place_ebc3c56dda1cdd4eef21ca14eda344cb58b0484e</title>
<path fill="none" stroke="#333333" d="M828.002,-116C837.759,-116 848.439,-116 858.485,-116"/>
<polygon fill="#333333" stroke="#333333" points="858.672,-117.75 863.672,-116 858.672,-114.25 858.672,-117.75"/>
</g>
<!-- transition_6d361f1d1c1160c1fbbc012cdf8a7580ba82afde&#45;&gt;place_37c46678bb10ce47b432c9f34f4249775d2b406a -->
<g id="edge12" class="edge"><title>transition_6d361f1d1c1160c1fbbc012cdf8a7580ba82afde&#45;&gt;place_37c46678bb10ce47b432c9f34f4249775d2b406a</title>
<path fill="none" stroke="#333333" d="M1044,-116C1053.76,-116 1064.44,-116 1074.49,-116"/>
<polygon fill="#333333" stroke="#333333" points="1074.67,-117.75 1079.67,-116 1074.67,-114.25 1074.67,-117.75"/>
</g>
<!-- transition_7a85f4764bbd6daf1c3545efbbf0f279a6dc0beb&#45;&gt;place_d6d551296016a4d101c4c61f430ae97cc706afdc -->
<g id="edge14" class="edge"><title>transition_7a85f4764bbd6daf1c3545efbbf0f279a6dc0beb&#45;&gt;place_d6d551296016a4d101c4c61f430ae97cc706afdc</title>
<path fill="none" stroke="#333333" d="M1260,-142C1269.76,-142 1280.44,-142 1290.49,-142"/>
<polygon fill="#333333" stroke="#333333" points="1290.67,-143.75 1295.67,-142 1290.67,-140.25 1290.67,-143.75"/>
</g>
<!-- transition_1f087a5954f6249bb7245576c304a0520d4178c5&#45;&gt;place_68759e3e50ab0983d9d04f4f3975e5baa4f71729 -->
<g id="edge16" class="edge"><title>transition_1f087a5954f6249bb7245576c304a0520d4178c5&#45;&gt;place_68759e3e50ab0983d9d04f4f3975e5baa4f71729</title>
<path fill="none" stroke="#333333" d="M1187.78,-52C1145.37,-52 1071.97,-52 1009,-52 899,-52 899,-52 899,-52 837.452,-52 767.031,-65.1072 724.305,-74.5444"/>
<polygon fill="#333333" stroke="#333333" points="723.733,-72.8789 719.234,-75.6759 724.495,-76.2949 723.733,-72.8789"/>
</g>
</g>
</svg>
